<svg width="609" height="923" viewBox="0 0 609 923" fill="none" xmlns="http://www.w3.org/2000/svg">
<path d="M122.371 837V794.275L160.213 786.951V531.824L122.371 524.5V481.531H160.213H232.479L387.264 728.113L388.729 727.869V531.824L343.318 524.5V481.531H452.449H490.535V524.5L452.449 531.824V837H383.602L225.398 592.859L223.934 593.104V786.951L269.588 794.275V837H122.371Z" fill="white"/>
<path d="M122.371 837H121.371V838H122.371V837ZM122.371 794.275L122.181 793.294L121.371 793.45V794.275H122.371ZM160.213 786.951L160.403 787.933L161.213 787.776V786.951H160.213ZM160.213 531.824H161.213V530.999L160.403 530.842L160.213 531.824ZM122.371 524.5H121.371V525.325L122.181 525.482L122.371 524.5ZM122.371 481.531V480.531H121.371V481.531H122.371ZM232.479 481.531L233.325 481L233.031 480.531H232.479V481.531ZM387.264 728.113L386.417 728.645L386.771 729.209L387.428 729.1L387.264 728.113ZM388.729 727.869L388.893 728.856L389.729 728.716V727.869H388.729ZM388.729 531.824H389.729V530.973L388.888 530.837L388.729 531.824ZM343.318 524.5H342.318V525.352L343.159 525.487L343.318 524.5ZM343.318 481.531V480.531H342.318V481.531H343.318ZM490.535 481.531H491.535V480.531H490.535V481.531ZM490.535 524.5L490.724 525.482L491.535 525.326V524.5H490.535ZM452.449 531.824L452.26 530.842L451.449 530.998V531.824H452.449ZM452.449 837V838H453.449V837H452.449ZM383.602 837L382.762 837.544L383.058 838H383.602V837ZM225.398 592.859L226.238 592.316L225.881 591.765L225.234 591.873L225.398 592.859ZM223.934 593.104L223.769 592.117L222.934 592.256V593.104H223.934ZM223.934 786.951H222.934V787.804L223.775 787.939L223.934 786.951ZM269.588 794.275H270.588V793.423L269.746 793.288L269.588 794.275ZM269.588 837V838H270.588V837H269.588ZM123.371 837V794.275H121.371V837H123.371ZM122.561 795.257L160.403 787.933L160.023 785.969L122.181 793.294L122.561 795.257ZM161.213 786.951V531.824H159.213V786.951H161.213ZM160.403 530.842L122.561 523.518L122.181 525.482L160.023 532.806L160.403 530.842ZM123.371 524.5V481.531H121.371V524.5H123.371ZM122.371 482.531H160.213V480.531H122.371V482.531ZM160.213 482.531H232.479V480.531H160.213V482.531ZM231.632 482.063L386.417 728.645L388.111 727.582L233.325 481L231.632 482.063ZM387.428 729.1L388.893 728.856L388.564 726.883L387.099 727.127L387.428 729.1ZM389.729 727.869V531.824H387.729V727.869H389.729ZM388.888 530.837L343.478 523.513L343.159 525.487L388.569 532.811L388.888 530.837ZM344.318 524.5V481.531H342.318V524.5H344.318ZM343.318 482.531H452.449V480.531H343.318V482.531ZM452.449 482.531H490.535V480.531H452.449V482.531ZM489.535 481.531V524.5H491.535V481.531H489.535ZM490.346 523.518L452.26 530.842L452.638 532.806L490.724 525.482L490.346 523.518ZM451.449 531.824V837H453.449V531.824H451.449ZM452.449 836H383.602V838H452.449V836ZM384.441 836.456L226.238 592.316L224.559 593.403L382.762 837.544L384.441 836.456ZM225.234 591.873L223.769 592.117L224.098 594.09L225.563 593.846L225.234 591.873ZM222.934 593.104V786.951H224.934V593.104H222.934ZM223.775 787.939L269.429 795.263L269.746 793.288L224.092 785.964L223.775 787.939ZM268.588 794.275V837H270.588V794.275H268.588ZM269.588 836H122.371V838H269.588V836Z" fill="white"/>
<g opacity="0.88">
<path d="M119.681 423V408.366H163.853V43.0635H119.681V28.4297H222.659V43.0635H178.487V220.024H430.513V43.0635H386.341V28.4297H430.513H445.147H489.319V43.0635H445.147V408.366H489.319V423H386.341V408.366H430.513V234.658H178.487V408.366H222.659V423H119.681Z" fill="white"/>
<path d="M119.681 423H102.681V440H119.681V423ZM119.681 408.366V391.366H102.681V408.366H119.681ZM163.853 408.366V425.366H180.853V408.366H163.853ZM163.853 43.0635H180.853V26.0635H163.853V43.0635ZM119.681 43.0635H102.681V60.0635H119.681V43.0635ZM119.681 28.4297V11.4297H102.681V28.4297H119.681ZM222.659 28.4297H239.659V11.4297H222.659V28.4297ZM222.659 43.0635V60.0635H239.659V43.0635H222.659ZM178.487 43.0635V26.0635H161.487V43.0635H178.487ZM178.487 220.024H161.487V237.024H178.487V220.024ZM430.513 220.024V237.024H447.513V220.024H430.513ZM430.513 43.0635H447.513V26.0635H430.513V43.0635ZM386.341 43.0635H369.341V60.0635H386.341V43.0635ZM386.341 28.4297V11.4297H369.341V28.4297H386.341ZM489.319 28.4297H506.319V11.4297H489.319V28.4297ZM489.319 43.0635V60.0635H506.319V43.0635H489.319ZM445.147 43.0635V26.0635H428.147V43.0635H445.147ZM445.147 408.366H428.147V425.366H445.147V408.366ZM489.319 408.366H506.319V391.366H489.319V408.366ZM489.319 423V440H506.319V423H489.319ZM386.341 423H369.341V440H386.341V423ZM386.341 408.366V391.366H369.341V408.366H386.341ZM430.513 408.366V425.366H447.513V408.366H430.513ZM430.513 234.658H447.513V217.658H430.513V234.658ZM178.487 234.658V217.658H161.487V234.658H178.487ZM178.487 408.366H161.487V425.366H178.487V408.366ZM222.659 408.366H239.659V391.366H222.659V408.366ZM222.659 423V440H239.659V423H222.659ZM136.681 423V408.366H102.681V423H136.681ZM119.681 425.366H163.853V391.366H119.681V425.366ZM180.853 408.366V43.0635H146.853V408.366H180.853ZM163.853 26.0635H119.681V60.0635H163.853V26.0635ZM136.681 43.0635V28.4297H102.681V43.0635H136.681ZM119.681 45.4297H222.659V11.4297H119.681V45.4297ZM205.659 28.4297V43.0635H239.659V28.4297H205.659ZM222.659 26.0635H178.487V60.0635H222.659V26.0635ZM161.487 43.0635V220.024H195.487V43.0635H161.487ZM178.487 237.024H430.513V203.024H178.487V237.024ZM447.513 220.024V43.0635H413.513V220.024H447.513ZM430.513 26.0635H386.341V60.0635H430.513V26.0635ZM403.341 43.0635V28.4297H369.341V43.0635H403.341ZM386.341 45.4297H430.513V11.4297H386.341V45.4297ZM430.513 45.4297H445.147V11.4297H430.513V45.4297ZM445.147 45.4297H489.319V11.4297H445.147V45.4297ZM472.319 28.4297V43.0635H506.319V28.4297H472.319ZM489.319 26.0635H445.147V60.0635H489.319V26.0635ZM428.147 43.0635V408.366H462.147V43.0635H428.147ZM445.147 425.366H489.319V391.366H445.147V425.366ZM472.319 408.366V423H506.319V408.366H472.319ZM489.319 406H386.341V440H489.319V406ZM403.341 423V408.366H369.341V423H403.341ZM386.341 425.366H430.513V391.366H386.341V425.366ZM447.513 408.366V234.658H413.513V408.366H447.513ZM430.513 217.658H178.487V251.658H430.513V217.658ZM161.487 234.658V408.366H195.487V234.658H161.487ZM178.487 425.366H222.659V391.366H178.487V425.366ZM205.659 408.366V423H239.659V408.366H205.659ZM222.659 406H119.681V440H222.659V406Z" fill="white"/>
</g>
</svg>
